<svg id="Layer_1" data-name="Layer 1" xmlns="http://www.w3.org/2000/svg" viewBox="0 0 600 300"><defs><style>.cls-1,.cls-2{fill:#343940;}.cls-2{stroke:#016e7e;}.cls-10,.cls-11,.cls-12,.cls-13,.cls-14,.cls-15,.cls-16,.cls-2,.cls-3,.cls-4,.cls-5{stroke-miterlimit:10;}.cls-2,.cls-4,.cls-5{stroke-width:2px;}.cls-10,.cls-11,.cls-12,.cls-13,.cls-14,.cls-15,.cls-16,.cls-3{fill:#7ab24a;stroke:#7ab24a;stroke-width:0.5px;}.cls-4,.cls-5{fill:none;}.cls-4{stroke:#294858;}.cls-5{stroke:#335f79;}.cls-6{font-size:28.1px;fill:#127480;font-family:Candide-Medium, Candide;font-weight:500;letter-spacing:0.05em;}.cls-7{letter-spacing:0.04em;}.cls-8{letter-spacing:0.05em;}.cls-11,.cls-9{letter-spacing:0.08em;}.cls-10{letter-spacing:0.08em;}.cls-12{letter-spacing:0.01em;}.cls-13{letter-spacing:0.06em;}.cls-14{letter-spacing:0.05em;}.cls-15{letter-spacing:0.08em;}.cls-16{letter-spacing:0.08em;}</style></defs><rect class="cls-1" width="600" height="300"/><path class="cls-2" d="M264.37,85.23l5.33,1.18a93.26,93.26,0,0,1,20.48,9.84c5.61,3.6,22.48,15.26,35.4,38.92a123.51,123.51,0,0,1,8.89,20.59c2.21-3.84,9.6-17.76,5.84-34.86-5.25-23.83-27.69-33.47-31.59-35.14-20.94-9-40.18-2-44.47-.32"/><path class="cls-3" d="M274.08,167.11a40.65,40.65,0,0,1-10.58-28.56c.26-14.83,7.67-25.92,10.16-29.39a106.9,106.9,0,0,1,34.27,17.51c19.25,15,24.79,32.67,25.27,32.39.84-.48-15.66-51.46-57.87-68.17a77.08,77.08,0,0,0-11.13-3.44h-.07a64.34,64.34,0,0,0,9.95,79.66Z"/><rect class="cls-4" x="1.87" y="2.49" width="595.42" height="295.22" rx="2.29"/><rect class="cls-5" x="5.31" y="6.49" width="588.53" height="287.22" rx="2.29"/><text class="cls-6" transform="translate(158.53 216.94)">BI<tspan class="cls-7" x="30.65" y="0">NT</tspan><tspan class="cls-8" x="70.3" y="0">E</tspan><tspan x="87.41" y="0">K</tspan><tspan class="cls-9" x="108.48" y="0" xml:space="preserve">  </tspan><tspan class="cls-10" x="126.01" y="0">S</tspan><tspan class="cls-11" x="143.01" y="0">O</tspan><tspan class="cls-12" x="165.74" y="0">L</tspan><tspan class="cls-13" x="181.59" y="0">U</tspan><tspan class="cls-14" x="203.67" y="0">T</tspan><tspan class="cls-15" x="222.02" y="0">IO</tspan><tspan class="cls-16" x="257.08" y="0">N</tspan><tspan class="cls-15" x="279.79" y="0">S</tspan></text></svg>